<?xml version="1.0" standalone="no"?>
<!DOCTYPE svg PUBLIC "-//W3C//DTD SVG 20010904//EN"
 "http://www.w3.org/TR/2001/REC-SVG-20010904/DTD/svg10.dtd">
<svg version="1.0" xmlns="http://www.w3.org/2000/svg"
 width="512.000000pt" height="512.000000pt" viewBox="0 0 512.000000 512.000000"
 preserveAspectRatio="xMidYMid meet">
<metadata>
Created by potrace 1.11, written by Peter Selinger 2001-2013
</metadata>
<g transform="translate(0.000000,512.000000) scale(0.100000,-0.100000)"
fill="#000000" stroke="none">
<path d="M2325 5010 c-307 -126 -382 -159 -397 -177 -6 -7 -24 -13 -41 -13
-48 0 -693 -287 -721 -321 -19 -22 -32 -28 -63 -27 -22 0 -53 -6 -69 -15 -16
-8 -189 -81 -384 -162 -195 -81 -365 -156 -378 -168 -33 -30 -45 -90 -39 -187
17 -275 51 -639 62 -662 7 -15 9 -30 4 -35 -24 -24 -27 -72 -8 -109 10 -20 17
-40 14 -43 -2 -4 7 -134 20 -290 17 -202 28 -290 39 -306 12 -18 13 -29 4 -53
-9 -23 -9 -43 -1 -79 6 -26 12 -72 12 -101 2 -94 40 -441 51 -461 5 -11 10
-31 10 -46 0 -20 45 -70 216 -238 119 -116 222 -215 229 -219 7 -5 29 -9 49
-10 28 -2 35 -6 30 -18 -23 -53 -20 -55 454 -505 77 -73 142 -115 178 -115 22
0 34 -17 34 -50 0 -10 63 -79 143 -157 382 -373 407 -395 423 -389 9 4 31 1
49 -5 28 -11 38 -9 73 9 34 17 41 18 46 6 13 -35 60 -9 342 192 159 113 297
213 307 222 9 8 17 27 17 41 0 19 3 22 12 13 20 -20 43 -14 104 27 108 70 468
306 551 361 82 53 105 82 84 103 -6 6 -11 16 -11 21 0 6 5 5 12 -2 7 -7 21
-12 31 -12 11 0 106 52 211 116 105 64 222 135 259 158 38 22 83 53 100 67 28
24 30 29 20 52 -7 15 -8 29 -4 31 5 3 11 18 14 33 75 358 97 473 97 497 0 17
9 40 21 52 14 15 21 38 24 75 1 30 21 137 44 239 23 102 53 237 67 300 14 63
30 133 35 155 15 56 14 99 -5 127 -15 23 -15 26 -1 38 9 7 21 22 26 32 16 31
130 620 127 660 -1 20 4 43 10 51 34 40 22 117 -24 159 -11 9 -172 105 -359
213 -224 130 -353 199 -378 203 -27 3 -41 12 -51 30 -8 16 -73 59 -182 121
-528 303 -496 286 -545 285 -43 0 -46 2 -55 30 -11 38 -23 45 -344 223 -172
95 -257 137 -285 139 -33 4 -87 -15 -310 -106z m312 64 c-3 -3 -12 -4 -19 -1
-8 3 -5 6 6 6 11 1 17 -2 13 -5z m-734 -311 c-7 -2 -21 -2 -30 0 -10 3 -4 5
12 5 17 0 24 -2 18 -5z m714 -279 c-3 -3 -12 -4 -19 -1 -8 3 -5 6 6 6 11 1 17
-2 13 -5z m130 -76 c-3 -8 -6 -5 -6 6 -1 11 2 17 5 13 3 -3 4 -12 1 -19z
m-1630 -4 c-3 -3 -12 -4 -19 -1 -8 3 -5 6 6 6 11 1 17 -2 13 -5z m691 -291
c-10 -2 -26 -2 -35 0 -10 3 -2 5 17 5 19 0 27 -2 18 -5z m1599 -69 c-3 -3 -12
-4 -19 -1 -8 3 -5 6 6 6 11 1 17 -2 13 -5z m-2895 -301 c198 -159 228 -188
238 -221 11 -41 14 -644 3 -656 -6 -6 -415 390 -436 423 -8 12 -34 280 -52
550 -6 86 -5 102 6 95 8 -4 116 -90 241 -191z m2655 175 c-3 -8 -6 -5 -6 6 -1
11 2 17 5 13 3 -3 4 -12 1 -19z m-2244 -489 c12 -7 38 -26 57 -43 20 -17 57
-49 84 -71 195 -159 385 -321 403 -343 21 -26 22 -40 33 -358 6 -182 8 -339 4
-348 -4 -11 -13 -15 -27 -10 -11 3 -135 103 -275 221 -141 118 -266 222 -279
231 -14 10 -28 35 -33 57 -11 45 -14 658 -3 668 9 9 11 9 36 -4z m684 -315
c-3 -3 -12 -4 -19 -1 -8 3 -5 6 6 6 11 1 17 -2 13 -5z m60 0 c-3 -3 -12 -4
-19 -1 -8 3 -5 6 6 6 11 1 17 -2 13 -5z m-1084 -189 c119 -101 224 -196 233
-211 18 -27 29 -182 36 -499 4 -175 19 -183 -329 157 -79 76 -145 149 -148
161 -8 35 -45 469 -45 526 0 43 3 51 18 51 10 0 116 -83 235 -185z m2815 78
c-10 -2 -26 -2 -35 0 -10 3 -2 5 17 5 19 0 27 -2 18 -5z m-1711 -210 c193
-129 595 -426 617 -456 24 -33 25 -61 6 -457 -11 -243 -17 -277 -48 -265 -8 3
-136 103 -284 223 -148 119 -283 227 -301 239 -17 13 -36 31 -42 40 -10 19
-21 662 -11 689 8 20 16 18 63 -13z m-714 -244 c16 -9 371 -320 484 -424 40
-36 43 -65 43 -366 l0 -289 -22 0 c-13 0 -43 19 -68 42 -89 83 -167 155 -280
258 -63 58 -127 117 -141 131 -25 24 -27 32 -33 155 -4 71 -11 204 -15 296 -9
151 -7 208 6 208 2 0 14 -5 26 -11z m-522 -237 c54 -36 409 -377 418 -401 9
-25 25 -300 26 -446 0 -59 -3 -70 -18 -73 -12 -2 -81 62 -220 203 -111 114
-205 214 -208 224 -11 29 -53 477 -46 495 8 20 16 20 48 -2z m1495 -609 c196
-168 276 -243 283 -266 16 -45 -5 -577 -24 -596 -16 -17 -29 -10 -97 54 -58
56 -307 286 -407 378 -52 48 -66 67 -72 100 -10 51 -12 561 -2 570 16 16 61
-18 319 -240z m-912 51 c17 -14 60 -54 96 -88 36 -33 119 -110 185 -171 161
-147 182 -170 189 -208 8 -45 10 -463 1 -476 -15 -25 -11 -28 -359 308 l-150
144 -18 246 c-10 135 -16 252 -13 258 7 20 35 15 69 -13z m653 -606 c175 -150
504 -463 509 -485 4 -14 4 -131 2 -260 -5 -197 -8 -238 -22 -251 -14 -14 -28
-4 -156 124 -78 76 -196 192 -263 256 l-122 117 -8 243 c-7 242 -5 288 13 288
5 0 26 -15 47 -32z"/>
</g>
</svg>
