<?xml version="1.0" encoding="iso-8859-1"?>
<!-- Generator: Adobe Illustrator 16.0.0, SVG Export Plug-In . SVG Version: 6.00 Build 0)  -->
<!DOCTYPE svg PUBLIC "-//W3C//DTD SVG 1.1//EN" "http://www.w3.org/Graphics/SVG/1.1/DTD/svg11.dtd">
<svg version="1.1" id="Capa_1" xmlns="http://www.w3.org/2000/svg" xmlns:xlink="http://www.w3.org/1999/xlink" x="0px" y="0px"
	 width="378.832px" height="378.832px" viewBox="0 0 378.832 378.832" style="enable-background:new 0 0 378.832 378.832;"
	 xml:space="preserve">
<g>
	<g>
		<g>
			<path d="M208.556,171.543c4.136-2.547,8.403-5.034,12.664-7.531c4.294-2.445,8.578-4.903,12.854-7.217
				c2.127-1.175,4.251-2.319,6.363-3.429c2.104-1.11,4.184-2.223,6.25-3.268c8.241-4.247,16.062-7.987,22.858-11.027
				c6.796-3.05,12.566-5.398,16.66-6.954c2.034-0.793,3.679-1.343,4.779-1.748c1.116-0.383,1.712-0.582,1.712-0.582
				s-0.478,0.411-1.36,1.188c-0.901,0.751-2.201,1.896-3.905,3.265c-3.394,2.762-8.312,6.591-14.349,10.953
				c-6.033,4.364-13.184,9.266-20.98,14.276c-1.939,1.272-3.939,2.517-5.96,3.783c-2.016,1.276-4.065,2.543-6.149,3.796
				c-4.142,2.553-8.412,5.029-12.674,7.524c-4.294,2.443-8.577,4.896-12.859,7.207c-0.468,0.26-0.933,0.495-1.401,0.749
				c22.938,4.027,85.072,12.512,117.978-6.487c74.679-43.117,33.771-50.114,17.416-78.445c-16.358-28.33-1.969-67.258-76.646-24.141
				c-32.899,18.999-56.62,77.048-64.605,98.929C207.655,172.103,208.093,171.819,208.556,171.543z"/>
		</g>
		<g>
			<path d="M214.46,197.051c4.282,2.311,8.565,4.766,12.859,7.207c4.262,2.496,8.532,4.974,12.677,7.524
				c2.081,1.253,4.132,2.521,6.148,3.796c2.019,1.269,4.019,2.508,5.957,3.78c7.799,5.015,14.949,9.913,20.981,14.28
				c6.036,4.361,10.955,8.186,14.349,10.95c1.704,1.368,3.004,2.517,3.905,3.264c0.886,0.779,1.36,1.191,1.36,1.191
				s-0.596-0.201-1.711-0.583c-1.103-0.403-2.744-0.956-4.779-1.748c-4.091-1.558-9.865-3.902-16.661-6.953
				c-6.794-3.042-14.617-6.782-22.855-11.028c-2.069-1.044-4.148-2.157-6.253-3.27c-2.112-1.105-4.236-2.252-6.363-3.428
				c-4.276-2.312-8.562-4.77-12.854-7.215c-4.261-2.497-8.527-4.984-12.664-7.531c-0.463-0.276-0.899-0.561-1.356-0.842
				c7.985,21.881,31.706,79.929,64.607,98.927c74.681,43.113,60.288,4.188,76.646-24.141c16.354-28.332,57.262-35.333-17.416-78.445
				c-32.904-18.999-95.038-10.513-117.978-6.491C213.527,196.556,213.992,196.791,214.46,197.051z"/>
		</g>
		<g>
			<path d="M195.327,214.924c0.134,4.857,0.155,9.8,0.189,14.738c-0.032,4.938-0.042,9.876-0.182,14.739
				c-0.04,2.429-0.111,4.842-0.213,7.226c-0.086,2.381-0.166,4.735-0.293,7.05c-0.45,9.258-1.112,17.899-1.876,25.308
				c-0.761,7.407-1.616,13.581-2.312,17.904c-0.331,2.156-0.679,3.855-0.874,5.016c-0.233,1.156-0.354,1.775-0.354,1.775
				s-0.119-0.619-0.353-1.775c-0.196-1.159-0.541-2.857-0.873-5.016c-0.695-4.323-1.552-10.497-2.313-17.904
				c-0.761-7.407-1.426-16.05-1.874-25.306c-0.128-2.315-0.209-4.671-0.294-7.052c-0.102-2.384-0.174-4.797-0.213-7.226
				c-0.14-4.863-0.148-9.8-0.182-14.738c0.034-4.939,0.056-9.88,0.188-14.739c0.013-0.534,0.033-1.055,0.053-1.59
				c-14.955,17.854-53.368,67.42-53.368,105.415c0.001,86.229,26.517,54.305,59.227,54.306
				c32.712-0.002,59.228,31.922,59.228-54.306c0-37.995-38.412-87.562-53.367-105.415
				C195.294,213.869,195.315,214.389,195.327,214.924z"/>
		</g>
		<g>
			<path d="M170.277,207.289c-4.137,2.546-8.404,5.034-12.664,7.531c-4.294,2.444-8.579,4.903-12.855,7.216
				c-2.127,1.175-4.251,2.32-6.363,3.429c-2.104,1.109-4.185,2.224-6.251,3.269c-8.241,4.245-16.063,7.988-22.858,11.027
				c-6.796,3.051-12.569,5.397-16.66,6.954c-2.035,0.792-3.679,1.344-4.78,1.747c-1.116,0.384-1.711,0.583-1.711,0.583
				s0.475-0.412,1.359-1.189c0.902-0.749,2.202-1.895,3.906-3.266c3.394-2.765,8.314-6.589,14.349-10.95
				c6.033-4.365,13.184-9.267,20.98-14.277c1.94-1.271,3.94-2.516,5.96-3.783c2.016-1.274,4.066-2.543,6.149-3.796
				c4.144-2.552,8.413-5.028,12.676-7.523c4.294-2.442,8.576-4.896,12.858-7.208c0.468-0.259,0.934-0.493,1.402-0.754
				c-22.939-4.021-85.073-12.507-117.979,6.492c-74.679,43.116-33.771,50.115-17.416,78.445
				c16.358,28.331,1.968,67.254,76.645,24.142c32.904-18.999,56.624-77.048,64.608-98.929
				C171.178,206.729,170.739,207.014,170.277,207.289z"/>
		</g>
		<g>
			<path d="M164.372,181.781c-4.282-2.312-8.564-4.765-12.858-7.208c-4.263-2.496-8.532-4.972-12.676-7.523
				c-2.083-1.253-4.134-2.521-6.149-3.796c-2.02-1.268-4.02-2.512-5.959-3.782c-7.798-5.013-14.949-9.912-20.981-14.278
				c-6.034-4.362-10.955-8.187-14.349-10.951c-1.704-1.37-3.004-2.516-3.906-3.264c-0.885-0.779-1.359-1.191-1.359-1.191
				s0.595,0.2,1.711,0.583c1.102,0.404,2.744,0.955,4.779,1.747c4.092,1.557,9.865,3.904,16.661,6.954
				c6.794,3.042,14.617,6.78,22.856,11.028c2.068,1.044,4.148,2.158,6.253,3.268c2.112,1.108,4.236,2.253,6.363,3.429
				c4.276,2.313,8.562,4.771,12.855,7.216c4.26,2.497,8.527,4.984,12.664,7.53c0.462,0.277,0.898,0.562,1.355,0.842
				c-7.984-21.88-31.705-79.929-64.608-98.928C32.346,30.344,46.737,69.269,30.38,97.6c-16.354,28.331-57.262,35.331,17.416,78.444
				c32.904,19,95.038,10.514,117.979,6.494C165.306,182.277,164.84,182.04,164.372,181.781z"/>
		</g>
		<g>
			<path d="M183.504,163.907c-0.133-4.859-0.153-9.798-0.188-14.738c0.033-4.939,0.042-9.875,0.181-14.738
				c0.04-2.43,0.113-4.842,0.214-7.226c0.085-2.381,0.165-4.735,0.293-7.05c0.449-9.258,1.113-17.899,1.875-25.307
				c0.762-7.407,1.617-13.582,2.312-17.904c0.332-2.158,0.678-3.856,0.874-5.016c0.232-1.157,0.353-1.775,0.353-1.775
				s0.119,0.618,0.354,1.775c0.195,1.159,0.542,2.857,0.874,5.016c0.693,4.322,1.551,10.497,2.312,17.904
				c0.762,7.407,1.426,16.049,1.875,25.307c0.128,2.313,0.208,4.669,0.293,7.05c0.102,2.384,0.174,4.796,0.214,7.226
				c0.14,4.863,0.147,9.799,0.182,14.738c-0.034,4.94-0.057,9.879-0.188,14.738c-0.013,0.536-0.034,1.057-0.052,1.591
				c14.954-17.854,53.366-67.42,53.366-105.415c0-86.229-26.517-54.305-59.228-54.305s-59.227-31.924-59.227,54.305
				c0,37.995,38.413,87.562,53.367,105.415C183.538,164.964,183.518,164.443,183.504,163.907z"/>
		</g>
	</g>
</g>
<g>
</g>
<g>
</g>
<g>
</g>
<g>
</g>
<g>
</g>
<g>
</g>
<g>
</g>
<g>
</g>
<g>
</g>
<g>
</g>
<g>
</g>
<g>
</g>
<g>
</g>
<g>
</g>
<g>
</g>
</svg>
