<svg xmlns="http://www.w3.org/2000/svg" width="430" height="430" viewBox="0 0 430.1 430.1"><path d="M71.2 197.4L200.4 67.5c32.4-32.6 85-32.6 117.4 0 7.8 8.2 7.4 21.4-0.6 29.4 -8.1 8.2-21.2 8.2-29.4 0l-2-2.3c-16.3-13.9-40.8-13.1-56.1 2.4L97.7 229.8c-8.7 8.1-21.8 8.1-29.9-0.1 -8.1-8.1-8.1-21.4 0-29.5C68.8 199.1 70 198.2 71.2 197.4zM361.2 200.2c-8.1-8.1-21.2-8.1-29.3 0 -1.1 1.1-2 2.3-2.8 3.5l-128.6 129.4c-16.2 16.3-42.5 16.3-58.7 0l-0.6-0.1c-8.1-8.1-21.2-8.1-29.3 0 -8.1 8.1-8.1 21.4 0 29.5 1 1 2.1 2 3.3 2.7 32.6 29.9 83.1 29.1 114.7-2.6L361.2 229.7C369.3 221.6 369.3 208.4 361.2 200.2zM159.3 285.9c-1.2 0.8-2.4 1.7-3.5 2.8 -8.1 8.1-8.1 21.4 0 29.5 8.1 8.1 21.2 8.1 29.9 0.1l132.1-132.9c16.2-16.3 42.5-16.3 58.7 0 16.2 16.3 16.2 42.7 0 59L251.2 371.1c16.2 16.3 42.5 16.3 58.7 0l95.9-97c32.4-32.6 32.4-85.5 0-118.1 -32.4-32.6-85-32.6-117.4 0L159.3 285.9zM141.7 274.1L273.2 141.2c8.1-8.2 8.1-21.4 0-29.5 -8.1-8.2-21.2-8.2-29.3 0 -1.1 1.1-2 2.3-2.8 3.5L112.4 244.6c-16.2 16.3-42.5 16.3-58.7 0 -16.2-16.3-16.2-42.7 0-59L178.9 59c-16.2-16.3-42.5-16.3-58.7 0l-95.9 97c-32.4 32.6-32.4 85.5 0 118.1C56.7 306.7 109.3 306.7 141.7 274.1z" /></svg>