<svg xmlns="http://www.w3.org/2000/svg" width="200" height="200" viewBox="0 0 2000 2008.3"><path d="M1015.1 864.6c51.1 0 89.8-11.1 116.2-33.3 26.4-22.2 39.6-55 39.6-98.3 0-42.8-13.2-75.3-39.6-97.5-26.4-22.8-65.1-34.2-116.2-34.2H835.8v263.3L1015.1 864.6 1015.1 864.6z"/><path d="M1173.4 1123.7c-32.6-27.2-81.7-40.8-147.3-40.8H835.8v325.8h190.3c65.1 0 113.9-13.6 146.5-40.8 33.1-27.2 49.7-68.3 49.7-123.3C1222.2 1190.6 1205.9 1150.4 1173.4 1123.7z" class="a"/><path d="M1676.9 0H323.1C144.6 0 0 144.6 0 323.1v1362.1c0 178.4 144.6 323.1 323.1 323.1h1353.8c178.4 0 323.1-144.6 323.1-323.1V323.1C2000 144.6 1855.4 0 1676.9 0zM1423.4 1538.7c-81.9 58.9-206.6 88.3-373.8 88.3H511.6V383h486.6c174.6 0 300.8 26.1 378.9 78.3 78.6 52.2 117.9 135.8 117.9 250.8 0 60.6-14.3 112.2-42.9 155-28.6 42.2-70.2 73.6-124.6 94.2 69.6 20 123.5 56.9 161.7 110.8 38.2 53.9 57.3 120 57.3 198.3C1546.4 1390.3 1505.4 1479.8 1423.4 1538.7z"/></svg>